<?xml version="1.0" encoding="UTF-8"?>
<svg id="Layer_2" data-name="Layer 2" xmlns="http://www.w3.org/2000/svg" viewBox="0 0 28.66 73.49">
  <defs>
    <style>
      .cls-1 {
        fill: none;
      }

      .cls-2 {
        fill: #fff;
      }
    </style>
  </defs>
  <g id="_1" data-name="1">
    <g>
      <path class="cls-2" d="M12.11,9.14l-.52-3.73h0c-.05-.2-.1-.3-.19-.36-.09-.05-.22-.05-.42-.05-.79.02-1.7.03-2.53-.06-.45-.05-.88-.13-1.26-.26l-.3-4.31h0c0-.1-.03-.18-.07-.24-.03-.06-.08-.1-.13-.12-.05-.02-.11-.02-.17,0-.05.02-.11.05-.15.1h0s0,0,0,0c-.31.42-.59.83-.78,1.24-.5.93-.43,2.17-.05,3.36.44,1.41,1.32,2.77,2.18,3.46.72.58,1.37.97,2.01,1.21.64.24,1.28.34,1.97.34h0s.02,0,.02,0c.15-.02.25-.09.32-.2.06-.1.08-.22.07-.36,0-.01,0-.02,0-.03Z"/>
      <path class="cls-2" d="M25.25,7.59c.47.45.8,1.1,1.05,1.86.03.08.07.15.11.2.05.05.1.08.16.09.06,0,.12,0,.18-.04.05-.03.1-.08.14-.15h0l1.67-2.54c.08-.1.11-.19.11-.27,0-.08-.02-.16-.06-.22-.28-.74-.67-1.39-1.21-1.86-.54-.47-1.22-.75-2.08-.73-.33,0-.66.05-.99.09-.83.1-1.66.2-2.38-.21-.41-.23-.54-.53-.71-.92,0,0,0,0,0,0,0,0,0,0,0,0,0,0,0-.01,0-.02,0-.01-.01-.03-.02-.05-.01-.03-.03-.06-.05-.08-.02-.02-.04-.04-.06-.05-.05-.03-.11-.04-.16-.03-.09.02-.15.09-.21.16l-.02.02-1.86,2.21c-.18.22-.08.44-.02.57,0,.02.01.03.02.03.01.03.02.04.02.04,0,0,0-.01.01.03.19.45.34.78.81,1.05.8.46,1.71.35,2.6.24.35-.04.7-.08,1.04-.09.83-.02,1.44.24,1.9.69Z"/>
      <path class="cls-2" d="M17.96,16.28c.34,0,.69.05,1.04.09.9.11,1.8.21,2.6-.24.48-.27.62-.6.81-1.05.02-.05.01-.03.01-.03,0,0,0,0,.02-.04,0,0,0-.02.02-.03.06-.13.16-.35-.02-.57l-1.86-2.21-.02-.02c-.06-.07-.12-.14-.21-.16-.05,0-.1,0-.16.03-.02.01-.04.03-.06.05-.02.02-.03.05-.05.08,0,.02-.02.04-.02.05,0,.01,0,.02,0,.02,0,0,0,0,0,0,0,0,0,0,0,0-.17.4-.3.69-.71.92-.72.41-1.55.31-2.38.21-.33-.04-.67-.08-.99-.09-.86-.02-1.54.26-2.08.73-.53.47-.92,1.12-1.21,1.86-.03.07-.06.14-.06.22,0,.08.03.18.11.27l1.67,2.54h0c.04.07.09.12.14.15.06.04.12.05.18.04.06,0,.11-.04.16-.09.05-.05.08-.11.11-.2.25-.76.58-1.4,1.05-1.86.47-.45,1.08-.71,1.9-.69Z"/>
      <path class="cls-2" d="M6.34,24.34s0,.03,0,.04c0,.03,0,.04,0,.04,0,0,0-.01,0,.04.08.48.14.84.54,1.21.67.63,1.58.74,2.47.85.35.04.7.09,1.03.16.81.18,1.34.58,1.68,1.12.35.55.51,1.26.58,2.05,0,.09.03.16.06.22.03.06.08.1.13.12.05.02.12.02.18,0,.06-.02.12-.06.18-.11h0l2.22-2.08c.1-.07.15-.16.17-.24.02-.08.01-.16,0-.23-.1-.78-.32-1.51-.73-2.09-.41-.58-1.01-1.01-1.85-1.2-.32-.07-.65-.11-.99-.15-.82-.1-1.66-.2-2.26-.77-.34-.32-.4-.64-.47-1.07,0,0,0,0,0,0,0,0,0,0,0,0,0,0,0-.01,0-.02,0-.01,0-.03,0-.05,0-.03-.01-.06-.03-.09-.01-.02-.03-.04-.04-.06-.04-.04-.1-.06-.14-.06-.09,0-.17.05-.24.11l-.02.02-2.33,1.7c-.23.17-.18.41-.15.55Z"/>
      <path class="cls-2" d="M3.68,11.87c.45.05.88.13,1.26.26l.3,4.31h0c0,.1.03.18.07.24.03.06.08.1.13.12.05.02.11.02.17,0,.05-.02.11-.05.15-.1h0s0,0,0,0c.31-.42.59-.83.78-1.24.5-.93.43-2.17.05-3.36-.44-1.41-1.32-2.77-2.18-3.46-.72-.58-1.37-.97-2.01-1.21-.64-.24-1.28-.34-1.97-.34h0s0,0,0,0c0,0-.02,0-.02,0-.15.02-.25.09-.32.2-.06.1-.08.22-.07.36,0,.01,0,.02,0,.03l.52,3.73h0c.05.2.1.3.19.36.09.05.22.05.42.05.79-.02,1.7-.03,2.53.06Z"/>
    </g>
    <rect class="cls-1" y="0" width="28.66" height="73.49"/>
  </g>
</svg>