<?xml version="1.0" encoding="UTF-8"?>
<svg id="Layer_2" data-name="Layer 2" xmlns="http://www.w3.org/2000/svg" viewBox="0 0 153.23 23.52">
  <defs>
    <style>
      .cls-1 {
        fill: #fff;
      }
    </style>
  </defs>
  <g id="_1" data-name="1">
    <g>
      <path class="cls-1" d="M24.63,4.98l-7.03,13.42-.05.1h-.12c-1.87,0-3.74.04-5.61.02,0,0-.03-.18-.03-.18l-.93-6.16.32.05-3.24,6.13-.03.06h-.07s-5.4-.04-5.4-.04h-.06S.15,5.07.12,5.02c0,0-.03-.2-.03-.2h.2s5.01-.05,5.01-.05c0,0,.19,0,.19,0,0,0,.03.19.03.19l.98,6.96-.47-.09,3.77-6.96.07-.14h.15s4.72,0,4.72,0h.22s.03.22.03.22l.91,7.02s-.35-.06-.35-.06l3.84-6.97.03-.06s.07,0,.07,0l5.13.1h0ZM24.59,5.01l-5.09.1.1-.06-3.71,7.04-.27.51-.09-.58-1.03-7,.25.22h-4.72s.23-.13.23-.13l-3.78,6.96-.37.68-.1-.76-.92-6.97.22.19-5.01-.05.17-.2,2.05,13.33-.07-.06,5.4-.04-.1.06,3.14-6.18.24-.47.09.52,1.02,6.15-.21-.18c1.81-.02,3.62.02,5.43.02l-.17.1,7.33-13.21h0Z"/>
      <g>
        <path class="cls-1" d="M37.93,12.95c-3.05.08-6.19.18-9.34.18l.2-.25c.52,2.09,3.82,1.49,5.13.51,0,0,.17-.13.17-.13l.12.18,2.23,3.38.07.11-.11.07c-4.16,2.73-12.12,2.41-13.31-3.4-1.98-11.33,17.95-12.71,14.83-.66h0ZM37.9,12.91c2.46-11.46-16.05-9.86-14.4.62.98,5.59,8.86,6.1,12.76,3.26,0,0-.03.18-.03.18l-2.35-3.29.29.05c-1.59,1.21-5.16,1.72-5.77-.75,0,0-.04-.25-.04-.25,3.15,0,6.29.1,9.55.18h0Z"/>
        <path class="cls-1" d="M28.84,10.26c1.61-.24,2.79-.17,4.34-.06,0,0-.08.08-.08.08-.03-1.64-2.2-1.85-3.29-1.1-.39.26-.7.68-.96,1.09h0ZM28.79,10.29c.24-2.66,4.64-2.82,4.45.07-1.38.05-3.12.21-4.45-.07h0Z"/>
      </g>
      <path class="cls-1" d="M41.94.23c1.86-.07,3.8-.14,5.74-.17,0,0-.04.23-.04.23l-.87,4.52c-.94,4.51-2.04,8.98-2.78,13.53,0,0-.02.11-.02.11h-.12s-5.5.1-5.5.1h-.28c1.13-6.1,2.48-12.3,3.87-18.31h0ZM41.97.27c-1.04,6.12-2.11,12.05-3.39,18.08,0,0-.23-.28-.23-.28l5.5.09-.13.11c1.37-5.89,2.23-12.15,3.55-18.07,0,0,.18.22.18.22-1.79-.03-3.6-.1-5.48-.17h0Z"/>
      <path class="cls-1" d="M49.87.23c1.86-.07,3.8-.14,5.74-.17,0,0-.04.23-.04.23l-.87,4.52c-.94,4.51-2.04,8.98-2.78,13.53,0,0-.02.11-.02.11h-.12s-5.5.1-5.5.1h-.28c1.13-6.1,2.48-12.3,3.87-18.31h0ZM49.91.27c-1.04,6.12-2.11,12.05-3.39,18.08,0,0-.23-.28-.23-.28l5.5.09-.13.11c1.37-5.89,2.23-12.15,3.55-18.07,0,0,.18.22.18.22-1.79-.03-3.6-.1-5.48-.17h0Z"/>
      <g>
        <path class="cls-1" d="M78.22,10.91c.12,4.06-3.22,8.09-7.46,7.85-1.34-.01-2.83-.52-3.62-1.74,0,0,.38-.08.38-.08l-1.34,6.11s-.02.09-.02.09c0,0-.09,0-.09,0-1.87-.02-3.74-.05-5.61-.02,0,0,.02-.11.02-.11.84-4.51,2.56-13.57,3.43-18.07,0,0,.04-.21.04-.21,0,0,.22,0,.22,0h5.18s.31.01.31.01c-.03.16-.27,1.32-.31,1.52,0,0-.42-.23-.42-.23,3.86-3.63,9.55-.06,9.28,4.88h0ZM78.17,10.91c.21-4.72-5.28-8.04-8.88-4.52,0,0-.58.59-.58.59l.16-.82.24-1.22.25.3h-5.18s.26-.2.26-.2c-.93,4.49-2.82,13.52-3.78,18,0,0-.09-.11-.09-.11,1.83.03,3.67,0,5.5-.02l-.11.09,1.14-6.15.09-.51c.68,1.32,2.09,1.94,3.57,1.99,4.08.3,7.49-3.43,7.39-7.42h0Z"/>
        <path class="cls-1" d="M72.6,11.18c.06-1.35-1.25-2.1-2.45-1.83-1.27.16-1.91,1.59-1.77,2.78.37,3.15,4.32,1.91,4.22-.95h0ZM72.65,11.18c.05,1.28-.35,2.92-1.83,3.23-1.47.42-2.92-.76-2.72-2.28.1-1.28.58-2.76,1.95-3.18,1.52-.44,2.68.75,2.59,2.23h0Z"/>
      </g>
      <path class="cls-1" d="M82.14.23c1.86-.07,3.8-.14,5.74-.17,0,0-.04.23-.04.23l-.87,4.52c-.94,4.51-2.04,8.98-2.78,13.53,0,0-.02.11-.02.11h-.12s-5.5.1-5.5.1h-.28c1.13-6.1,2.48-12.3,3.87-18.31h0ZM82.18.27c-1.04,6.12-2.11,12.05-3.39,18.08,0,0-.23-.28-.23-.28l5.5.09-.13.11c1.37-5.89,2.23-12.15,3.55-18.07,0,0,.18.22.18.22-1.79-.03-3.6-.1-5.48-.17h0Z"/>
      <g>
        <path class="cls-1" d="M103.79,4.98c-.75,4.38-1.55,9.01-2.5,13.54-1.83-.02-3.66-.07-5.49-.1,0,0,.03-.13.03-.13l.26-1.21.16.09c-2.78,2.86-7.9,1.27-8.97-2.48-1.74-4.85,2.28-10.81,7.62-10.14,1.23.11,2.54.66,3.24,1.76l-.33.06.32-1.41.03-.13c1.92.02,3.82.09,5.64.14h0ZM103.75,5.01c-1.88.05-3.69.12-5.48.14l.15-.12s-.27,1.42-.27,1.42l-.08.42c-.65-1.17-1.9-1.79-3.23-1.85-6.38-.72-10.3,8.39-5.25,12.41,1.87,1.47,4.86,1.38,6.52-.4l.22-.23-.06.32-.23,1.22-.11-.14c1.73-.03,3.46-.08,5.18-.1l-.21.17c.84-4.39,1.81-8.71,2.84-13.26h0Z"/>
        <path class="cls-1" d="M94.64,14.19c2.37.11,3.39-5.24.44-4.97-2.42.02-3.19,4.92-.44,4.97h0ZM94.64,14.24c-3.4.14-2.63-5.59.44-5.3,3.19.18,2.66,5.5-.44,5.3h0Z"/>
      </g>
      <path class="cls-1" d="M121.05,4.98c-2.17,3.74-5.12,8.89-7.32,12.55-1.24,2.08-2.54,4.39-4.9,5.37-2.32.84-5.11.69-7.15-.75.84-1.32,1.66-2.65,2.47-3.98.89.72,2.42,1.13,3.3.2-.04.59-3.05-13.45-3.08-13.32,0,0-.07-.3-.07-.3h.31s5.48-.01,5.48-.01h.22c.45,2.46.94,4.91,1.37,7.37,0,0-.42-.07-.42-.07l4.27-7.11s.04-.06.04-.06h.07c1.84.01,3.64.1,5.4.12h0ZM121,5.01l-5.36.12.11-.06-4.1,7.21-.3.52c-.54-2.57-1.01-5.16-1.52-7.75,0,0,.26.21.26.21h-5.48s.24-.31.24-.31l2.8,13.48v.07s-.03.05-.03.05c-.94.98-2.55.6-3.51-.16,0,0,.14-.03.14-.03-.81,1.27-1.61,2.53-2.39,3.82l-.02-.11c.96.7,2.18,1,3.36,1.07,4.1.38,6.33-2.52,8.13-5.8,1.89-3.08,5.74-9.27,7.67-12.33h0Z"/>
      <g>
        <path class="cls-1" d="M134.18,12.95c-3.05.08-6.19.18-9.34.18l.2-.25c.52,2.09,3.82,1.49,5.13.51,0,0,.17-.13.17-.13l.12.18,2.23,3.38s.07.11.07.11l-.11.07c-4.16,2.73-12.12,2.41-13.31-3.4-1.98-11.33,17.95-12.71,14.83-.66h0ZM134.15,12.91c2.46-11.46-16.05-9.86-14.4.62.98,5.59,8.86,6.1,12.76,3.26,0,0-.03.18-.03.18l-2.35-3.29.29.05c-1.59,1.21-5.16,1.72-5.77-.75,0,0-.04-.25-.04-.25,3.15,0,6.29.1,9.55.18h0Z"/>
        <path class="cls-1" d="M125.08,10.26c1.61-.24,2.79-.17,4.34-.06,0,0-.08.08-.08.08-.03-1.64-2.2-1.85-3.29-1.1-.39.26-.7.68-.96,1.09h0ZM125.04,10.29c.24-2.66,4.64-2.82,4.45.07-1.38.05-3.12.21-4.45-.07h0Z"/>
      </g>
      <g>
        <path class="cls-1" d="M152.95.23c-.99,5.37-2.26,12.85-3.45,18.11,0,0-.03.14-.03.14h-.14s-5.18-.08-5.18-.08c0,0-.11,0-.11,0l.02-.11.25-1.21.14.08c-.88.85-2.06,1.41-3.29,1.48-4.03.34-6.68-3.97-5.93-7.64.49-4.43,5.47-7.89,9.72-5.99.58.28,1.09.72,1.45,1.25l-.41.09,1.3-6.12s.02-.12.02-.12c1.91.01,3.81.09,5.64.13h0ZM152.91.27c-1.87.03-3.69.11-5.48.13,0,0,.14-.12.14-.12l-1.13,6.15-.1.53c-1.3-2.28-4.51-2.34-6.67-1.32-2.12.98-3.64,3.1-4,5.43-1.17,5.23,4.28,9.87,8.66,5.96,0,0,.2-.21.2-.21l-.06.29-.23,1.22-.09-.11,5.18-.08-.17.14c.92-5.22,2.61-12.75,3.76-18.01h0Z"/>
        <path class="cls-1" d="M142.88,14.19c2.38.11,3.39-5.24.44-4.97-2.43.03-3.19,4.9-.44,4.97h0ZM142.88,14.24c-3.4.14-2.63-5.59.44-5.3,3.19.18,2.66,5.49-.44,5.3h0Z"/>
      </g>
    </g>
  </g>
</svg>