<?xml version="1.0" encoding="UTF-8"?>
<svg id="Layer_2" data-name="Layer 2" xmlns="http://www.w3.org/2000/svg" viewBox="0 0 79.97 73.49">
  <defs>
    <style>
      .cls-1 {
        fill: #fff;
      }
    </style>
  </defs>
  <g id="_1" data-name="1">
    <path class="cls-1" d="M1.05,53.95c.7.37,1.42.12,1.95-.35.55-.48,1.01-1.09,1.43-1.7.65-.94,1.44-1.71,2.52-2.14,1.54-.61,2.77-.24,3.56,1.21.37.68.59,1.47.73,2.23.27,1.44.54,1.75,2.04,1.62,2.23-.19,4.45-.44,6.68-.67.23-.02.46-.07.69-.09,1.47-.11,1.92.36,1.48,1.79-.24.77-.72,1.52-1.26,2.13-1.72,1.9-3.53,3.72-5.27,5.6-.54.58-1.04,1.2-1.46,1.87-.58.94-.45,1.88.26,2.72.21.25.45.47.69.69,1.5,1.33,3.02,2.62,4.49,3.97.74.68,1.6.55,2.72.65-.45-.98-.78-1.79-1.18-2.55-.45-.87-1.01-1.68-1.43-2.56-.75-1.57-.55-2.46.81-3.56,1.92-1.56,3.88-3.06,5.81-4.6,1.02-.81,2.02-1.65,3.03-2.49.86-.71,1.81-1.12,2.96-.97,1,.13,1.82-.25,2.49-1,1.06-1.18,2.08-2.39,3.19-3.52,2.07-2.11,3.07-4.72,3.78-7.52.46-1.8.99-3.59,1.58-5.36.59-1.76.98-1.96,2.78-1.8.28.02.56.09.83.08.87-.02,1.23-.32,1.53-1.15,1.05-2.89,2.11-5.77,3.16-8.65.31-.84.86-1.43,1.7-1.74,2.5-.91,4.59-2.37,6.44-4.3,2.04-2.14,4.69-2.28,7.25-1.17,1.53.66,3.02,1.05,4.63.99l-.18,1.28s0,.02,0,.03c-.01.13,0,.26.07.36.06.1.17.18.32.2,0,0,.01,0,.02,0h0s0,0,0,0c.46,0,.89-.05,1.32-.15.06.07.15.13.26.14,0,0,.01,0,.02,0h0s0,0,0,0c.7,0,1.33-.09,1.97-.34.11-.04.23-.1.34-.15.2.12.41.23.62.32,1.38.6,2.72-.05,3.01-1.51.19-.97.25-1.93.05-2.85.06-.16.12-.32.17-.49.37-1.19.44-2.42-.05-3.36-.2-.41-.47-.82-.78-1.24h0s0,0,0,0c-.05-.05-.1-.08-.15-.1-.06-.02-.11-.02-.17,0-.05.02-.1.06-.13.12-.04.06-.06.14-.07.24h0l-.1,1.51c-.05-.18-.12-.36-.21-.53-.2-.41-.47-.82-.78-1.24h0s0,0,0,0c-.05-.05-.1-.08-.15-.1-.06-.02-.11-.02-.17,0-.05.02-.1.06-.13.12-.04.06-.06.14-.07.24h0l-.18,2.61-7.9-1.09c-3.95.19-7.91.34-11.87.35-2.05,0-2.98-1.36-2.66-3.38.22-1.42.36-2.86.58-4.28.16-1.01.34-2.02.59-3.01.61-2.41-.23-3.97-2.59-4.78-4.44-1.5-8.53,0-10.94,4.04-.26.44-.51.89-.79,1.32-.37.58-.5,1.16-.21,1.85.31.75.1,1.29-.7,1.46-.89.19-1.84.19-2.76.17-1.02-.02-2.05-.27-3.06-.21-1.1.06-2.19.34-3.27.57-1.07.24-1.76.94-2.3,1.88-.36.62-.9,1.13-1.43,1.77.63.24,1.15,0,1.66-.14,2.48-.63,4.96-1.28,7.45-1.89.43-.1.94-.14,1.34,0,.64.23.71.9.18,1.32-.29.23-.65.37-.99.5-2.25.9-4.5,1.79-6.76,2.68-.52.2-1.08.35-1.16,1.04.42.86,1.22.82,1.94.8,1.61-.03,3.12-.45,4.5-1.33.94-.6,1.89-1.2,2.86-1.74.81-.45,1.69-.51,2.57-.21,1,.34,1.32,1.39.7,2.24-.5.69-1.24.95-2.03,1.14-2.9.68-5.8,1.4-8.71,2.01-1.83.38-3.38,1.19-4.82,2.38-1.7,1.41-3.19,2.98-4.5,4.75-1.14,1.53-2.42,2.96-3.62,4.45-.54.68-1.18,1.14-2.05,1.36-.72.18-1.42.46-2.09.77-.56.26-1.01.7-1.32,1.23l-2.91-.42-1.35.49.85.12-.92.39.96.14-1.04.41.85.12-.95.57,4.02.02c0,.32.05.64.16.94.06.17.13.37.25.49.81.81,1.8.9,2.85.66,1.01-.23,2.02-.47,2.23-1.81-.04-.03-.09-.04-.14-.06l3.73.53-.86-.71h.86s-.97-.57-.97-.57h.97s-.86-.53-.86-.53h.86s-1.27-.69-1.27-.69h-1.13c.4-.14.79-.34,1.17-.62,2.51-1.86,5.04-3.68,7.57-5.52.88-.64,1.84-.87,2.91-.57,1.07.3,1.46.88,1.26,1.97-.08.45-.24.92-.5,1.29-.59.83-1.18,1.68-1.9,2.4-2.55,2.53-5.15,5.01-7.74,7.49-.63.61-1.28,1.12-2.24,1.31-.66.13-1.24.74-1.8,1.21-.31.26-.49.67-.73,1.02-1.18,1.69-2.25,2.14-4.2,1.43-1.07-.39-2.1-1.02-2.99-1.74-2.34-1.88-3.6-1.82-5.55.48-.84.99-1.67,2.01-2.45,3.05-.86,1.15-1.24,2.49-1.36,3.91-.08.89.27,1.57,1.04,1.97Z"/>
  </g>
</svg>